<svg width="400" height="200" viewBox="0 0 400 200" xmlns="http://www.w3.org/2000/svg">
  <defs>
    <linearGradient id="dnaGradient" x1="0%" y1="0%" x2="100%" y2="0%">
      <stop offset="0%" style="stop-color:#4F46E5;stop-opacity:1" />
      <stop offset="50%" style="stop-color:#7C3AED;stop-opacity:1" />
      <stop offset="100%" style="stop-color:#EC4899;stop-opacity:1" />
    </linearGradient>
  </defs>
  
  <!-- Background -->
  <rect width="400" height="200" fill="#f8fafc"/>
  
  <!-- DNA Double Helix -->
  <g stroke="url(#dnaGradient)" stroke-width="3" fill="none">
    <!-- First strand -->
    <path d="M 50 100 Q 100 50, 150 100 T 250 100 T 350 100" />
    <!-- Second strand -->
    <path d="M 50 100 Q 100 150, 150 100 T 250 100 T 350 100" />
    
    <!-- Connecting base pairs -->
    <line x1="75" y1="75" x2="75" y2="125" stroke="#94a3b8" stroke-width="2"/>
    <line x1="125" y1="100" x2="125" y2="100" stroke="#94a3b8" stroke-width="2"/>
    <line x1="175" y1="125" x2="175" y2="75" stroke="#94a3b8" stroke-width="2"/>
    <line x1="225" y1="100" x2="225" y2="100" stroke="#94a3b8" stroke-width="2"/>
    <line x1="275" y1="75" x2="275" y2="125" stroke="#94a3b8" stroke-width="2"/>
    <line x1="325" y1="100" x2="325" y2="100" stroke="#94a3b8" stroke-width="2"/>
  </g>
  
  <!-- Small circles representing nucleotides -->
  <g fill="url(#dnaGradient)">
    <circle cx="75" cy="75" r="4"/>
    <circle cx="75" cy="125" r="4"/>
    <circle cx="125" cy="100" r="4"/>
    <circle cx="175" cy="125" r="4"/>
    <circle cx="175" cy="75" r="4"/>
    <circle cx="225" cy="100" r="4"/>
    <circle cx="275" cy="75" r="4"/>
    <circle cx="275" cy="125" r="4"/>
    <circle cx="325" cy="100" r="4"/>
  </g>
</svg> 